HIERARCHY
ROOT hip
{
	OFFSET 0.000000 0.000000 0.000000 
	CHANNELS 6 Xposition Yposition Zposition Xrotation Zrotation Yrotation
	JOINT abdomen
	{
		OFFSET 0.000000 3.402643 0.000000 
		CHANNELS 3 Xrotation Zrotation Yrotation
		JOINT chest
		{
			OFFSET 0.000000 8.438565 -0.680529 
			CHANNELS 3 Xrotation Zrotation Yrotation
			JOINT neck
			{
				OFFSET 0.000000 10.207942 -0.272212 
				CHANNELS 3 Xrotation Zrotation Yrotation
				JOINT head
				{
					OFFSET 0.000000 3.130431 0.000000 
					CHANNELS 3 Xrotation Zrotation Yrotation
					End Site
					{
						OFFSET 0.000000 3.130435 0.000000 
					}
				}
			}
			JOINT lCollar
			{
				OFFSET 3.470700 6.669187 -0.816635 
				CHANNELS 3 Yrotation Zrotation Xrotation
				JOINT lShldr
				{
					OFFSET 3.198488 0.000000 0.000000 
					CHANNELS 3 Zrotation Yrotation Xrotation
					JOINT lForeArm
					{
						OFFSET 10.139888 0.000000 0.000000 
						CHANNELS 3 Yrotation Zrotation Xrotation
						JOINT lHand
						{
							OFFSET 8.370511 0.000000 0.000000 
							CHANNELS 3 Zrotation Yrotation Xrotation
							End Site
							{
								OFFSET 4.083176 0.000000 0.000000 
							}
						}
					}
				}
			}
			JOINT rCollar
			{
				OFFSET -3.470700 6.669187 -0.816635 
				CHANNELS 3 Yrotation Zrotation Xrotation
				JOINT rShldr
				{
					OFFSET -3.198488 0.000000 0.000000 
					CHANNELS 3 Zrotation Yrotation Xrotation
					JOINT rForeArm
					{
						OFFSET -10.139888 0.000000 0.000000 
						CHANNELS 3 Yrotation Zrotation Xrotation
						JOINT rHand
						{
							OFFSET -8.370511 0.000000 0.000000 
							CHANNELS 3 Zrotation Yrotation Xrotation
							End Site
							{
								OFFSET -4.083176 0.000000 0.000000 
							}
						}
					}
				}
			}
		}
	}
	JOINT lThigh
	{
		OFFSET 5.308129 -1.633274 1.361059 
		CHANNELS 3 Xrotation Zrotation Yrotation
		JOINT lShin
		{
			OFFSET -2.041588 -20.007561 0.000000 
			CHANNELS 3 Xrotation Zrotation Yrotation
			JOINT lFoot
			{
				OFFSET 0.000000 -19.190928 -1.224953 
				CHANNELS 3 Xrotation Yrotation Zrotation
				End Site
				{
					OFFSET 0.000000 -2.449906 4.627600 
				}
			}
		}
	}
	JOINT rThigh
	{
		OFFSET -5.308129 -1.633274 1.361059 
		CHANNELS 3 Xrotation Zrotation Yrotation
		JOINT rShin
		{
			OFFSET 2.041588 -20.007561 0.000000 
			CHANNELS 3 Xrotation Zrotation Yrotation
			JOINT rFoot
			{
				OFFSET 0.000000 -19.190928 -1.224953 
				CHANNELS 3 Xrotation Yrotation Zrotation
				End Site
				{
					OFFSET 0.000000 -2.449906 4.627600 
				}
			}
		}
	}
}
MOTION
Frames: 10
Frame Time: 0.016667
0.504577 40.029011 0.192146 -1.807077 1.259139 4.452474 -16.803299 -1.561262 1.730992 28.519884 -2.660544 0.322395 3.918518 2.045991 -1.334234 7.514040 5.402704 -0.342636 1.993405 -2.003458 -0.008156 -79.730789 -2.137245 5.853539 -58.265263 -0.557792 -1.365898 -0.055951 -0.006681 46.835938 -2.003062 1.991579 -0.506922 85.515266 -1.013798 3.437998 53.719925 0.097396 -0.594784 0.051981 -0.007186 42.617188 -14.356532 3.142820 -1.899003 40.937313 2.595210 2.825638 -30.949757 16.408529 10.489761 -12.716711 -1.094527 7.852301 43.434242 -2.512528 -2.982508 -27.400639 -18.597136 -10.309826 
0.586375 40.013878 0.226079 -1.865928 1.561672 4.421805 -16.992100 -1.905284 2.036846 28.348400 -3.180915 0.365191 3.576209 1.910338 -1.325684 7.287399 5.318271 -0.345604 1.993405 -2.003458 -0.008156 -79.474335 -1.661483 5.764102 -58.548691 -0.564457 -1.371872 -0.058594 0.000000 43.984375 -2.003062 1.991579 -0.506922 86.325630 -1.375129 2.950010 53.163300 0.097315 -0.585994 0.042151 -0.007126 43.134766 -14.219966 2.693738 -1.925636 40.975540 2.604856 2.818673 -31.303808 16.642679 10.727838 -12.795670 -1.543372 7.676303 43.822735 -2.551604 -2.970643 -27.391661 -18.589951 -10.222352 
0.638358 40.014881 0.267340 -1.826947 1.669073 4.370620 -16.844009 -1.747874 1.671414 28.529226 -2.643138 0.262902 3.272624 1.511204 -0.919231 7.316590 5.298551 -0.130524 1.993405 -2.003458 -0.008156 -80.403152 -1.830634 4.357609 -58.812492 -0.566490 -1.369398 -0.052047 0.007246 42.099609 -2.003062 1.991579 -0.506922 85.785934 -0.984271 3.701632 52.831211 0.092927 -0.591320 0.042185 -0.007158 42.861324 -14.177970 2.558149 -1.723866 40.936035 2.604872 2.809669 -31.345800 16.799536 10.818376 -12.772170 -1.640558 7.975915 43.870605 -2.565442 -2.965311 -27.575600 -18.689562 -10.369022 
0.685749 40.015507 0.292031 -1.826956 1.678834 4.399605 -16.903336 -1.822082 1.744722 28.482769 -2.738782 0.272570 2.852100 1.111903 -0.862399 7.128487 5.145680 -0.119046 1.993405 -2.003458 -0.008156 -80.551529 -1.636794 3.917485 -59.017807 -0.574982 -1.374760 -0.052210 0.007390 40.820313 -2.003062 1.991579 -0.506922 86.061409 -1.130560 3.613926 52.557774 0.089811 -0.583116 0.042185 -0.007158 42.861324 -14.165816 2.528478 -1.634944 40.937313 2.595214 2.825640 -31.336611 16.791290 10.821623 -12.712779 -1.572258 8.239556 43.870548 -2.575109 -2.978749 -27.654709 -18.990791 -10.518092 
0.726582 40.011005 0.306433 -1.846433 1.610492 4.508656 -16.903519 -1.840769 1.721099 28.503668 -2.789767 0.253471 2.451308 0.604915 -0.833378 6.949915 4.953751 -0.109539 1.993405 -2.003458 -0.008156 -80.765167 -1.461994 3.575297 -59.134964 -0.572169 -1.375934 -0.052254 0.007428 40.478516 -2.003062 1.991579 -0.506922 86.253464 -1.218418 3.506521 52.391766 0.091500 -0.582854 0.042173 -0.007147 42.958981 -14.177638 2.635980 -1.533696 40.996105 2.585370 2.811805 -31.263180 16.687765 10.718191 -12.608917 -1.435997 8.492735 43.851761 -2.558379 -2.972714 -27.805395 -19.241951 -10.743506 
0.762291 40.003128 0.322292 -1.885466 1.561655 4.606819 -16.835035 -1.832088 1.647718 28.600273 -2.744313 0.233007 2.294958 0.322007 -0.719463 6.939403 4.885994 -0.060022 1.993405 -2.003458 -0.008156 -81.066498 -1.423526 3.223602 -59.174019 -0.571231 -1.376323 -0.052254 0.007428 40.478516 -2.003062 1.991579 -0.506922 86.318672 -1.276929 3.486986 52.391766 0.091500 -0.582854 0.042162 -0.007137 43.046871 -14.238819 2.771349 -1.266367 41.171310 2.601547 2.813990 -31.122190 16.478947 10.484194 -12.552518 -1.318563 8.646332 43.850864 -2.577878 -2.980227 -27.979809 -19.326496 -10.868096 
0.792829 39.996876 0.342493 -1.914765 1.551868 4.684472 -16.796228 -1.860512 1.674457 28.651188 -2.820167 0.227639 2.177740 0.126861 -0.620154 6.938900 4.837524 -0.007309 1.993405 -2.003458 -0.008156 -81.170235 -1.413949 3.096447 -59.144733 -0.571935 -1.376031 -0.052264 0.007437 40.400391 -2.003062 1.991579 -0.506922 86.505302 -1.481853 3.340747 52.528477 0.090109 -0.583070 0.042154 -0.007129 43.115231 -14.266231 2.899882 -0.950910 41.240498 2.595058 2.820349 -30.988838 16.283447 10.347239 -12.469255 -1.298873 8.689740 43.831757 -2.568210 -2.976860 -28.106680 -19.281940 -10.924253 
0.824546 39.994999 0.361933 -1.934340 1.590890 4.711923 -16.865755 -1.971988 1.837925 28.559174 -3.028650 0.266530 1.962895 -0.117119 -0.609503 6.849628 4.731766 -0.017734 1.993405 -2.003458 -0.008156 -81.044487 -1.228593 3.164592 -59.056862 -0.574045 -1.375152 -0.052254 0.007428 40.478516 -2.003062 1.991579 -0.506922 86.835770 -1.843110 3.038678 52.684731 0.094439 -0.591081 0.042150 -0.007125 43.144527 -14.252073 2.879555 -0.735933 41.163147 2.585275 2.827960 -30.813145 16.191509 10.253785 -12.403119 -1.465598 8.526950 43.841011 -2.571115 -2.968087 -28.028763 -19.252260 -10.850218 
0.863747 39.997875 0.372003 -1.914933 1.727551 4.717666 -16.945131 -2.083272 1.933337 28.427128 -3.195750 0.283215 1.630912 -0.458798 -0.608844 6.691551 4.597509 -0.026990 1.993405 -2.003458 -0.008156 -80.977364 -0.926406 3.066794 -58.998280 -0.575451 -1.374564 -0.052226 0.007404 40.693363 -2.003062 1.991579 -0.506922 87.011497 -2.116406 2.912136 52.792149 0.093330 -0.591257 0.042148 -0.007123 43.164059 -14.170718 2.722510 -0.583922 41.114525 2.572231 2.814469 -30.831207 16.139671 10.219595 -12.469498 -1.786872 8.187804 43.898594 -2.594598 -2.976017 -27.780510 -19.054264 -10.627027 
0.903995 40.003628 0.369779 -1.944357 1.834881 4.761970 -16.906569 -2.130422 1.858215 28.398579 -3.222405 0.241091 1.523525 -0.615017 -0.465680 6.691368 4.578111 0.048864 1.993405 -2.003458 -0.008156 -81.083176 -0.809644 2.705223 -58.919971 -0.568963 -1.378821 -0.052194 0.007376 40.947266 -2.003062 1.991579 -0.506922 86.967712 -2.096602 3.068282 52.889797 0.092322 -0.591415 0.042161 -0.007136 43.056637 -14.134559 2.586487 -0.557679 41.096844 2.565826 2.851359 -30.802992 16.085443 10.184911 -12.547352 -2.060276 7.777440 43.976738 -2.604414 -2.988077 -27.579372 -18.746082 -10.422930 
